<?xml version="1.0" standalone="no"?>
<!DOCTYPE svg PUBLIC "-//W3C//DTD SVG 20010904//EN"
 "http://www.w3.org/TR/2001/REC-SVG-20010904/DTD/svg10.dtd">
<svg version="1.0" xmlns="http://www.w3.org/2000/svg"
 width="512.000000pt" height="512.000000pt" viewBox="0 0 512.000000 512.000000"
 preserveAspectRatio="xMidYMid meet">
<metadata>
Created by potrace 1.11, written by Peter Selinger 2001-2013
</metadata>
<g transform="translate(0.000000,512.000000) scale(0.100000,-0.100000)"
fill="#000000" stroke="none">
<path d="M2519 4907 c-38 -29 -39 -43 -39 -564 l0 -509 -177 -177 -177 -177
-757 0 c-706 0 -757 -1 -776 -17 -11 -10 -95 -137 -188 -283 -93 -146 -191
-301 -220 -345 -202 -315 -202 -316 -163 -367 15 -21 26 -23 116 -26 l99 -4 0
-1039 0 -1039 -92 0 c-87 0 -94 -2 -119 -27 -22 -22 -26 -34 -22 -56 3 -16 6
-33 6 -38 0 -5 13 -15 30 -24 26 -13 307 -15 2519 -15 1535 0 2499 4 2514 9
23 9 36 30 44 71 10 55 -37 80 -152 80 -61 0 -85 4 -86 13 0 6 -1 474 -2 1040
l-2 1027 87 0 c95 0 134 12 145 44 17 51 15 55 -74 194 -70 108 -117 182 -158
247 -17 28 -81 127 -140 220 -60 94 -126 197 -146 230 -21 33 -46 69 -54 80
-15 20 -31 20 -780 25 l-765 5 -175 175 -175 174 0 143 0 143 375 0 374 0 26
26 c38 38 29 73 -50 192 l-68 102 69 103 c78 116 88 159 45 196 -23 20 -35 21
-398 21 l-373 0 0 43 c0 63 -10 86 -41 102 -34 18 -59 19 -80 2z"/>
</g>
</svg>
